<svg width="3559" height="422" viewBox="0 0 3559 422" fill="none" xmlns="http://www.w3.org/2000/svg">
<g filter="url(#filter0_d_1_32)">
<path d="M663.8 77L572.2 222.2L613 365H537L507 259.4H475.4L456.6 365H384.6L435.4 77H507.4L486.2 197H511.8L587.8 77H663.8ZM830.431 303.4C830.431 310.333 833.898 313.8 840.831 313.8C848.031 313.8 854.031 312.467 858.831 309.8L856.831 355C844.031 365.4 829.631 370.6 813.631 370.6C784.298 370.6 768.031 359.933 764.831 338.6C751.498 359.933 731.898 370.6 706.031 370.6C662.298 370.6 640.431 351.8 640.431 314.2C640.431 307.8 641.098 300.733 642.431 293L650.831 246.2C655.098 222.2 664.831 203.133 680.031 189C695.498 174.6 715.498 167.4 740.031 167.4C764.831 167.4 781.631 173.133 790.431 184.6L792.431 172.6H853.231L830.831 298.6C830.565 300.2 830.431 301.8 830.431 303.4ZM712.031 284.2C711.498 286.6 711.231 289.933 711.231 294.2C711.231 298.467 713.231 302.733 717.231 307C721.231 311 727.898 313 737.231 313C746.831 313 755.098 309.267 762.031 301.8L774.031 234.6C771.098 227.933 764.165 224.6 753.231 224.6C732.698 224.6 720.698 234.467 717.231 254.2L712.031 284.2ZM1077.46 213.4C1077.46 222.467 1075.86 231.267 1072.66 239.8C1069.72 248.333 1066.79 254.6 1063.86 258.6L1059.46 264.2H999.056C1005.72 258.067 1009.06 250.467 1009.06 241.4C1009.06 236.6 1007.46 232.733 1004.26 229.8C1001.32 226.6 997.19 225 991.856 225C982.79 225 974.923 229.533 968.256 238.6L945.856 365H877.856L911.856 172.6H975.056L970.256 199.4C985.456 177.8 1003.86 167 1025.46 167C1042.79 167 1055.72 171.133 1064.26 179.4C1073.06 187.667 1077.46 199 1077.46 213.4ZM1174.53 370.6C1143.59 370.6 1121.33 363.667 1107.73 349.8C1097.59 339.667 1092.53 326.067 1092.53 309C1092.53 303.4 1093.06 297.4 1094.13 291L1121.33 136.2L1194.53 105.8L1182.92 172.6H1293.33L1283.33 229H1172.93L1164.93 274.2C1163.86 279.267 1163.33 283.8 1163.33 287.8C1163.33 304.6 1171.33 313 1187.33 313C1195.86 313 1202.93 309.4 1208.53 302.2C1214.39 295 1218.39 285.4 1220.53 273.4H1286.93C1275.73 338.2 1238.26 370.6 1174.53 370.6ZM1600.55 259.4H1494.15L1475.75 365H1403.35L1454.15 77H1654.95L1643.75 139.4H1514.95L1504.95 197H1611.35L1600.55 259.4ZM1755.4 167C1784.2 167 1805.93 173.267 1820.6 185.8C1832.07 195.667 1837.8 209.4 1837.8 227C1837.8 232.867 1837.13 239.267 1835.8 246.2L1827.4 293C1822.33 321.267 1810.47 341.267 1791.8 353C1773.4 364.733 1748.73 370.6 1717.8 370.6C1686.87 370.6 1664.2 364.733 1649.8 353C1639.13 344.2 1633.8 331 1633.8 313.4C1633.8 307.267 1634.47 300.467 1635.8 293L1644.2 246.2C1653.53 193.4 1690.6 167 1755.4 167ZM1766.2 254.2C1766.73 251.533 1767 248.2 1767 244.2C1767 239.933 1765.27 235.267 1761.8 230.2C1758.33 225.133 1752.2 222.6 1743.4 222.6C1734.87 222.6 1727.67 225.533 1721.8 231.4C1715.93 237 1712.2 244.6 1710.6 254.2L1705.4 284.2C1704.87 286.867 1704.6 290.333 1704.6 294.6C1704.6 298.6 1706.33 303 1709.8 307.8C1713.27 312.6 1719.27 315 1727.8 315C1736.6 315 1743.93 312.067 1749.8 306.2C1755.67 300.067 1759.4 292.733 1761 284.2L1766.2 254.2ZM1981.18 167C2009.98 167 2031.71 173.267 2046.38 185.8C2057.85 195.667 2063.58 209.4 2063.58 227C2063.58 232.867 2062.91 239.267 2061.58 246.2L2053.18 293C2048.11 321.267 2036.25 341.267 2017.58 353C1999.18 364.733 1974.51 370.6 1943.58 370.6C1912.65 370.6 1889.98 364.733 1875.58 353C1864.91 344.2 1859.58 331 1859.58 313.4C1859.58 307.267 1860.25 300.467 1861.58 293L1869.98 246.2C1879.31 193.4 1916.38 167 1981.18 167ZM1991.98 254.2C1992.51 251.533 1992.78 248.2 1992.78 244.2C1992.78 239.933 1991.05 235.267 1987.58 230.2C1984.11 225.133 1977.98 222.6 1969.18 222.6C1960.65 222.6 1953.45 225.533 1947.58 231.4C1941.71 237 1937.98 244.6 1936.38 254.2L1931.18 284.2C1930.65 286.867 1930.38 290.333 1930.38 294.6C1930.38 298.6 1932.11 303 1935.58 307.8C1939.05 312.6 1945.05 315 1953.58 315C1962.38 315 1969.71 312.067 1975.58 306.2C1981.45 300.067 1985.18 292.733 1986.78 284.2L1991.98 254.2ZM2274.96 303.4C2274.96 310.333 2278.43 313.8 2285.36 313.8C2292.56 313.8 2298.56 312.467 2303.36 309.8L2301.36 355C2288.56 365.4 2274.16 370.6 2258.16 370.6C2228.83 370.6 2212.56 359.933 2209.36 338.6C2196.03 359.933 2176.43 370.6 2150.56 370.6C2106.83 370.6 2084.96 351.8 2084.96 314.2C2084.96 307.8 2085.63 300.733 2086.96 293L2095.36 246.2C2099.63 222.2 2109.36 203.133 2124.56 189C2140.03 174.6 2161.36 167.4 2188.56 167.4C2205.36 167.4 2218.7 171 2228.56 178.2L2248.96 61.4H2317.36L2275.36 298.6C2275.1 300.2 2274.96 301.8 2274.96 303.4ZM2156.56 284.2C2156.03 286.6 2155.76 289.933 2155.76 294.2C2155.76 298.467 2157.76 302.733 2161.76 307C2165.76 311 2172.43 313 2181.76 313C2191.36 313 2199.63 309.267 2206.56 301.8L2218.56 234.6C2215.63 227.933 2208.7 224.6 2197.76 224.6C2177.23 224.6 2165.23 234.467 2161.76 254.2L2156.56 284.2Z" fill="#569CCF"/>
<rect x="70" y="52" width="167" height="117" fill="#569CCF"/>
<ellipse cx="69.5" cy="45" rx="44.5" ry="45" fill="#569CCF"/>
<ellipse cx="148.5" cy="45" rx="48.5" ry="45" fill="#569CCF"/>
<ellipse cx="236.5" cy="45" rx="48.5" ry="45" fill="#569CCF"/>
<path fill-rule="evenodd" clip-rule="evenodd" d="M304 264C304 341.78 244.8 405.734 169 413.259V330.5C169 321.94 162.06 315 153.5 315C155.985 315 158 312.985 158 310.5V246.5C158 244.015 155.985 242 153.5 242C151.015 242 149 244.015 149 246.5V310.5C149 312.985 151.015 315 153.5 315C144.94 315 138 321.94 138 330.5V413.157C62.6801 405.17 4 341.438 4 264C4 181.157 71.1573 114 154 114C236.843 114 304 181.157 304 264ZM173.5 242C171.015 242 169 244.015 169 246.5V310.5C169 312.985 171.015 315 173.5 315C175.985 315 178 312.985 178 310.5V246.5C178 244.015 175.985 242 173.5 242ZM133.5 242C131.015 242 129 244.015 129 246.5V310.5C129 312.985 131.015 315 133.5 315C135.985 315 138 312.985 138 310.5V246.5C138 244.015 135.985 242 133.5 242Z" fill="#569CCF"/>
</g>
<defs>
<filter id="filter0_d_1_32" x="0" y="0" width="2321.36" height="421.259" filterUnits="userSpaceOnUse" color-interpolation-filters="sRGB">
<feFlood flood-opacity="0" result="BackgroundImageFix"/>
<feColorMatrix in="SourceAlpha" type="matrix" values="0 0 0 0 0 0 0 0 0 0 0 0 0 0 0 0 0 0 127 0" result="hardAlpha"/>
<feOffset dy="4"/>
<feGaussianBlur stdDeviation="2"/>
<feComposite in2="hardAlpha" operator="out"/>
<feColorMatrix type="matrix" values="0 0 0 0 0 0 0 0 0 0 0 0 0 0 0 0 0 0 0.25 0"/>
<feBlend mode="normal" in2="BackgroundImageFix" result="effect1_dropShadow_1_32"/>
<feBlend mode="normal" in="SourceGraphic" in2="effect1_dropShadow_1_32" result="shape"/>
</filter>
</defs>
</svg>
